<svg width="34" height="34" viewBox="0 0 34 34" fill="none" xmlns="http://www.w3.org/2000/svg">
<path d="M26.004 5.07889L0.894422 30.1885L0.788356 30.2946L0.894422 30.4006L3.59987 33.1061L3.70594 33.2121L3.81201 33.1061L28.9216 7.99649L28.7046 31.946L28.7032 32.0991L28.8562 32.0974L32.7462 32.0537L32.7473 31.9037L32.8933 31.9049L33.15 1.00125L33.1512 0.848522L32.9985 0.850007C29.0799 0.888102 23.202 0.934044 17.3467 0.979809C11.6247 1.02453 5.92427 1.06909 2.09483 1.10599L1.9487 1.10739L1.94629 1.2535L1.88247 5.12197L1.87993 5.27595L2.03392 5.27444C5.73672 5.23799 10.0838 5.20497 14.5659 5.17092C18.3856 5.14191 22.3033 5.11215 26.004 5.07889Z" fill="#0E0E0E" stroke="#0E0E0E" stroke-width="0.3"/>
</svg>
